<mxfile host="app.diagrams.net" modified="2024-02-20T15:49:35.687Z" agent="Mozilla/5.0 (Windows NT 10.0; Win64; x64) AppleWebKit/537.36 (KHTML, like Gecko) Chrome/121.0.0.0 Safari/537.36" etag="slNaEOvrdGYGH7MZudP-" version="23.1.5" type="github">
  <diagram name="Page-1" id="X4yozd5_kqdS1_7KtxCV">
    <mxGraphModel dx="1185" dy="632" grid="1" gridSize="10" guides="1" tooltips="1" connect="1" arrows="1" fold="1" page="1" pageScale="1" pageWidth="850" pageHeight="1100" math="0" shadow="0">
      <root>
        <mxCell id="0" />
        <mxCell id="1" parent="0" />
        <mxCell id="Zy5JVfYh49z3S8n-Rtx--1" value="Spawning Rooms" style="rounded=0;whiteSpace=wrap;html=1;fillColor=#dae8fc;strokeColor=#6c8ebf;" vertex="1" parent="1">
          <mxGeometry x="110" y="10" width="120" height="60" as="geometry" />
        </mxCell>
        <mxCell id="Zy5JVfYh49z3S8n-Rtx--2" value="Minimum Spanning Tree" style="rounded=0;whiteSpace=wrap;html=1;fillColor=#dae8fc;strokeColor=#6c8ebf;" vertex="1" parent="1">
          <mxGeometry x="360" y="10" width="120" height="60" as="geometry" />
        </mxCell>
        <mxCell id="Zy5JVfYh49z3S8n-Rtx--3" value="Create Tunnels" style="rounded=0;whiteSpace=wrap;html=1;fillColor=#dae8fc;strokeColor=#6c8ebf;" vertex="1" parent="1">
          <mxGeometry x="590" y="10" width="120" height="60" as="geometry" />
        </mxCell>
        <mxCell id="Zy5JVfYh49z3S8n-Rtx--4" value="1. Define room quantity&lt;br&gt;2. Random room sizes&lt;br&gt;3. Define max/min room size&lt;br&gt;4. Generating inside a set border&lt;br&gt;&lt;div&gt;&lt;br&gt;&lt;/div&gt;" style="rounded=0;whiteSpace=wrap;html=1;" vertex="1" parent="1">
          <mxGeometry x="30" y="120" width="180" height="80" as="geometry" />
        </mxCell>
        <mxCell id="Zy5JVfYh49z3S8n-Rtx--5" value="1. Room positions create &quot;Delaunay Triangulation&quot;&lt;br&gt;2. &quot;Prim&#39;s algorithm&quot; to find min spanning tree" style="rounded=0;whiteSpace=wrap;html=1;" vertex="1" parent="1">
          <mxGeometry x="300" y="120" width="190" height="80" as="geometry" />
        </mxCell>
        <mxCell id="Zy5JVfYh49z3S8n-Rtx--6" value="1. Make tunnels based on Minimum Spanning Tree&lt;br&gt;2. Make tunnels based on Delaunay Triangulation edges&lt;br&gt;3. Every edge has a chance to be added back again" style="rounded=0;whiteSpace=wrap;html=1;" vertex="1" parent="1">
          <mxGeometry x="560" y="120" width="240" height="100" as="geometry" />
        </mxCell>
        <mxCell id="Zy5JVfYh49z3S8n-Rtx--7" value="" style="shape=flexArrow;endArrow=classic;html=1;rounded=0;width=10.857142857142858;endSize=5.28;exitX=0.427;exitY=1.033;exitDx=0;exitDy=0;exitPerimeter=0;" edge="1" parent="1" source="Zy5JVfYh49z3S8n-Rtx--1">
          <mxGeometry width="50" height="50" relative="1" as="geometry">
            <mxPoint x="160" y="80" as="sourcePoint" />
            <mxPoint x="140" y="120" as="targetPoint" />
          </mxGeometry>
        </mxCell>
        <mxCell id="Zy5JVfYh49z3S8n-Rtx--8" value="" style="shape=flexArrow;endArrow=classic;html=1;rounded=0;width=10.857142857142858;endSize=5.28;exitX=0.427;exitY=1.033;exitDx=0;exitDy=0;exitPerimeter=0;" edge="1" parent="1">
          <mxGeometry width="50" height="50" relative="1" as="geometry">
            <mxPoint x="411" y="72" as="sourcePoint" />
            <mxPoint x="390" y="120" as="targetPoint" />
          </mxGeometry>
        </mxCell>
        <mxCell id="Zy5JVfYh49z3S8n-Rtx--9" value="" style="shape=flexArrow;endArrow=classic;html=1;rounded=0;width=10.857142857142858;endSize=5.28;exitX=0.427;exitY=1.033;exitDx=0;exitDy=0;exitPerimeter=0;" edge="1" parent="1">
          <mxGeometry width="50" height="50" relative="1" as="geometry">
            <mxPoint x="651" y="70" as="sourcePoint" />
            <mxPoint x="630" y="118" as="targetPoint" />
          </mxGeometry>
        </mxCell>
        <mxCell id="Zy5JVfYh49z3S8n-Rtx--10" value="" style="endArrow=classic;html=1;rounded=0;entryX=0;entryY=0.5;entryDx=0;entryDy=0;" edge="1" parent="1" target="Zy5JVfYh49z3S8n-Rtx--2">
          <mxGeometry width="50" height="50" relative="1" as="geometry">
            <mxPoint x="230" y="39.71000000000001" as="sourcePoint" />
            <mxPoint x="300" y="39.71000000000001" as="targetPoint" />
          </mxGeometry>
        </mxCell>
        <mxCell id="Zy5JVfYh49z3S8n-Rtx--11" value="" style="endArrow=classic;html=1;rounded=0;" edge="1" parent="1">
          <mxGeometry width="50" height="50" relative="1" as="geometry">
            <mxPoint x="480" y="39.71000000000001" as="sourcePoint" />
            <mxPoint x="590" y="40" as="targetPoint" />
          </mxGeometry>
        </mxCell>
      </root>
    </mxGraphModel>
  </diagram>
</mxfile>
